<svg width="378" height="494" viewBox="0 0 378 494" fill="none" xmlns="http://www.w3.org/2000/svg">
<path d="M4.99277 390.75V327.5H155.693V276.35H100.143C67.5094 276.35 42.7594 269.017 25.8928 254.35C9.02611 239.317 0.592774 217.867 0.592774 190C0.592774 161.767 9.02611 140.133 25.8928 125.1C43.1261 109.7 67.8761 102 100.143 102H155.693V0.249963H221.693V102H350.943V165.25H221.693V213.1H288.793C317.393 213.1 339.209 220.617 354.243 235.65C369.643 250.317 377.343 271.767 377.343 300C377.343 328.6 369.643 350.967 354.243 367.1C338.843 382.867 317.026 390.75 288.793 390.75H221.693V493.05H155.693V390.75H4.99277ZM103.993 213.1H155.693V165.25H103.993C88.2261 165.25 80.3428 172.95 80.3428 188.35C80.3428 196.05 82.5428 202.1 86.9428 206.5C91.3428 210.9 97.0261 213.1 103.993 213.1ZM274.493 276.35H221.693V327.5H274.493C289.893 327.5 297.593 318.883 297.593 301.65C297.593 284.783 289.893 276.35 274.493 276.35Z" fill="white"/>
</svg>
