<svg width="266" height="41" viewBox="0 0 266 41" fill="none" xmlns="http://www.w3.org/2000/svg">
<g filter="url(#filter0_d_1_4)">
<path d="M4.52 29V3.26H26.084C28.748 3.26 30.812 3.932 32.276 5.276C33.764 6.62 34.508 8.66 34.508 11.396C34.508 14.132 33.764 16.172 32.276 17.516C30.812 18.86 28.748 19.532 26.084 19.532H10.28V29H4.52ZM25.4 7.94H10.28V14.816L25.4 14.852C26.456 14.852 27.26 14.588 27.812 14.06C28.388 13.532 28.676 12.644 28.676 11.396C28.676 10.124 28.388 9.236 27.812 8.732C27.26 8.204 26.456 7.94 25.4 7.94ZM37.5542 29V10.46H51.7382C53.8262 10.46 55.3622 10.988 56.3462 12.044C57.3302 13.076 57.8222 14.444 57.8222 16.148V20H52.5302V16.796C52.5302 15.356 51.8102 14.636 50.3702 14.636H42.8462V29H37.5542ZM70.8942 29.18C67.6782 29.18 65.1702 28.388 63.3702 26.804C61.5702 25.196 60.6702 22.844 60.6702 19.748C60.6702 16.628 61.5702 14.276 63.3702 12.692C65.1702 11.084 67.6782 10.28 70.8942 10.28H77.5542C80.7702 10.28 83.2782 11.084 85.0782 12.692C86.8782 14.276 87.7782 16.628 87.7782 19.748C87.7782 22.844 86.8782 25.196 85.0782 26.804C83.2782 28.388 80.7702 29.18 77.5542 29.18H70.8942ZM70.8942 25.04H77.5542C79.1142 25.04 80.3022 24.608 81.1182 23.744C81.9582 22.88 82.3782 21.548 82.3782 19.748C82.3782 17.924 81.9582 16.58 81.1182 15.716C80.3022 14.852 79.1142 14.42 77.5542 14.42H70.8942C69.3342 14.42 68.1342 14.852 67.2942 15.716C66.4782 16.58 66.0702 17.924 66.0702 19.748C66.0702 21.548 66.4782 22.88 67.2942 23.744C68.1342 24.608 69.3342 25.04 70.8942 25.04ZM95.1309 29V14.6H89.7669V10.46H95.1309V9.02C95.1309 7.316 95.6229 5.948 96.6069 4.916C97.5909 3.86 99.1269 3.332 101.215 3.332H109.063V7.472H102.511C101.071 7.472 100.351 8.204 100.351 9.668V10.46H108.055V14.6H100.351V29H95.1309ZM111.418 29V10.46H116.638V29H111.418ZM111.382 7.4V3.332H116.674V7.4H111.382ZM130.241 29C128.153 29 126.617 28.484 125.633 27.452C124.649 26.396 124.157 25.016 124.157 23.312V14.6H118.793V10.46H124.157V4.772H129.377V10.46H137.081V14.6H129.377V22.664C129.377 24.128 130.097 24.86 131.537 24.86H138.089V29H130.241ZM141.313 29V3.26H162.877C165.541 3.26 167.605 3.932 169.069 5.276C170.557 6.62 171.301 8.66 171.301 11.396C171.301 14.132 170.557 16.172 169.069 17.516C167.605 18.86 165.541 19.532 162.877 19.532H147.073V29H141.313ZM162.193 7.94H147.073V14.816L162.193 14.852C163.249 14.852 164.053 14.588 164.605 14.06C165.181 13.532 165.469 12.644 165.469 11.396C165.469 10.124 165.181 9.236 164.605 8.732C164.053 8.204 163.249 7.94 162.193 7.94ZM180.251 29C178.139 29 176.591 28.472 175.607 27.416C174.647 26.36 174.167 24.992 174.167 23.312V10.46H179.387V22.7C179.387 24.14 180.107 24.86 181.547 24.86H189.035C190.475 24.86 191.195 24.14 191.195 22.7V10.46H196.415V23.312C196.415 24.992 195.923 26.36 194.939 27.416C193.979 28.472 192.443 29 190.331 29H180.251ZM200.187 29V3.26H205.407V29H200.187ZM245.691 29.18C242.475 29.18 239.967 28.388 238.167 26.804C236.367 25.196 235.467 22.844 235.467 19.748C235.467 16.628 236.367 14.276 238.167 12.692C239.967 11.084 242.475 10.28 245.691 10.28H254.691C256.803 10.28 258.411 10.784 259.515 11.792C260.643 12.776 261.207 14.192 261.207 16.04C261.207 19.808 259.035 21.692 254.691 21.692H241.083C241.587 23.924 243.123 25.04 245.691 25.04H260.271V29.18H245.691ZM245.691 14.42C243.219 14.42 241.695 15.464 241.119 17.552H254.439C254.919 17.552 255.291 17.408 255.555 17.12C255.843 16.832 255.987 16.436 255.987 15.932C255.987 14.924 255.471 14.42 254.439 14.42H245.691Z" fill="black"/>
<path d="M208.751 25.58V21.44H218.615V18.092H214.979C212.843 18.092 211.223 17.612 210.119 16.652C209.015 15.668 208.463 14.264 208.463 12.44C208.463 10.592 209.015 9.176 210.119 8.192C211.247 7.184 212.867 6.68 214.979 6.68H218.615V0.0199976H222.935V6.68H231.395V10.82H222.935V13.952H227.327C229.199 13.952 230.627 14.444 231.611 15.428C232.619 16.388 233.123 17.792 233.123 19.64C233.123 21.512 232.619 22.976 231.611 24.032C230.603 25.064 229.175 25.58 227.327 25.58H222.935V32.276H218.615V25.58H208.751ZM215.231 13.952H218.615V10.82H215.231C214.199 10.82 213.683 11.324 213.683 12.332C213.683 12.836 213.827 13.232 214.115 13.52C214.403 13.808 214.775 13.952 215.231 13.952ZM226.391 18.092H222.935V21.44H226.391C227.399 21.44 227.903 20.876 227.903 19.748C227.903 18.644 227.399 18.092 226.391 18.092Z" fill="#00757C"/>
</g>
<defs>
<filter id="filter0_d_1_4" x="0.520004" y="0.0200043" width="264.687" height="40.256" filterUnits="userSpaceOnUse" color-interpolation-filters="sRGB">
<feFlood flood-opacity="0" result="BackgroundImageFix"/>
<feColorMatrix in="SourceAlpha" type="matrix" values="0 0 0 0 0 0 0 0 0 0 0 0 0 0 0 0 0 0 127 0" result="hardAlpha"/>
<feOffset dy="4"/>
<feGaussianBlur stdDeviation="2"/>
<feComposite in2="hardAlpha" operator="out"/>
<feColorMatrix type="matrix" values="0 0 0 0 0 0 0 0 0 0 0 0 0 0 0 0 0 0 0.25 0"/>
<feBlend mode="normal" in2="BackgroundImageFix" result="effect1_dropShadow_1_4"/>
<feBlend mode="normal" in="SourceGraphic" in2="effect1_dropShadow_1_4" result="shape"/>
</filter>
</defs>
</svg>
