<svg xmlns="http://www.w3.org/2000/svg" width="154" height="185.8" viewBox="0 0 153.986 185.773">
  <g id="Group_284" data-name="Group 284" transform="matrix(1,0,0,1,-203.1,-1644.8)">
    <circle id="Ellipse_74" data-name="Ellipse 74" cx="72.5" cy="72.5" r="72.5" transform="translate(204.2,1829.4) rotate(-90)" fill="#eff5f7" stroke="#0763eb" stroke-miterlimit="10" stroke-width="2.2"/>
    <g id="Group_200" data-name="Group 200" transform="translate(337.4,1751.3) rotate(30)">
      <path id="Path_71" data-name="Path 71" d="M 5970.4 -325.8 C 5978 -336 5982.1 -348.3 5982.1 -361 C 5982.1 -373.7 5978 -386 5970.4 -396.2" transform="translate(-5970.4,396.2)" fill="none" stroke="#ffffff" stroke-linecap="round" stroke-linejoin="round" stroke-width="3"/>
    </g>
    <path id="Path_109" data-name="Path 109" d="M 5898.8 -470.1 C 5891.9 -463.7 5886.3 -456 5882.5 -447.3 C 5877.7 -436.6 5875.9 -424.8 5877.3 -413.1 c 2.9 25.6 5.5 39.7 5.5 39.7 h 32.3 s 2.6 -14.1 5.5 -39.7 C 5921.9 -424.8 5920.1 -436.6 5915.3 -447.3 C 5911.5 -456 5905.9 -463.7 5899 -470.1" transform="translate(-5020.8,-864.7) rotate(30)" fill="#ccdfe7" stroke="#0763eb" stroke-linecap="round" stroke-linejoin="round" stroke-width="2.2"/>
    <path id="Path_110" data-name="Path 110" d="M 5870 -399.4 s -27 10.2 -21.1 52.8 c -0.1 0 9.6 -24.4 24.7 -24.4" transform="translate(-5006.6,-875.8) rotate(30)" fill="none" stroke="#0763eb" stroke-linecap="round" stroke-linejoin="round" stroke-width="2.34"/>
    <rect x="0" y="0" id="Rectangle_73" data-name="Rectangle 73" width="22.7" height="11.9" transform="translate(264.7,1755.7) rotate(30)" fill="#ffffff" stroke="#0763eb" stroke-linecap="round" stroke-linejoin="round" stroke-width="2.34"/>
    <path id="Path_111" data-name="Path 111" d="M 5903.3 -314.7 C 5902.6 -314.7 5902 -314.7 5901.3 -314.6 C 5899.4 -314.4 5897.5 -313.6 5896 -312.4 C 5894.5 -311.2 5893.5 -309.5 5893 -307.6 C 5892.6 -305.4 5892.8 -303.1 5893.7 -301 C 5894.4 -298.9 5895.4 -296.9 5896.4 -295 C 5897.5 -293.1 5898.7 -291.2 5900 -289.4 q 0.9 1.2 1.8 2.4 c 0.2 0.3 0.6 0.6 1 0.6 C 5903.1 -286.5 5903.4 -286.7 5903.5 -287 C 5906.9 -291.1 5909.5 -295.7 5911.5 -300.7 C 5912.2 -302.6 5912.6 -304.6 5912.5 -306.6 C 5912.1 -309.2 5910.7 -311.5 5908.6 -312.9 C 5907 -314 5905.2 -314.6 5903.3 -314.7 Z" transform="translate(-5005.7,-898.4) rotate(30)" fill="#80afc3" stroke="#0763eb" stroke-linecap="round" stroke-linejoin="round" stroke-width="2.2"/>
    <path id="Path_112" data-name="Path 112" d="M 5933.6 -399.4 s 27 10.2 21.1 52.8 c 0.1 0 -9.6 -24.4 -24.7 -24.4" transform="translate(-5023.3,-885.4) rotate(30)" fill="none" stroke="#0763eb" stroke-linecap="round" stroke-linejoin="round" stroke-width="2.34"/>
    <line id="Line_109" data-name="Line 109" y2="42.69" transform="translate(295.824 1724.423) rotate(30)" fill="none" stroke="#0763eb" stroke-linecap="round" stroke-linejoin="round" stroke-width="2.34"/>
    <circle id="Ellipse_75" data-name="Ellipse 75" cx="8.8" cy="8.8" r="8.8" transform="translate(297,1704.8) rotate(30)" fill="#ffffff" stroke="#0763eb" stroke-miterlimit="10" stroke-width="2.34"/>
    <path id="Path_113" data-name="Path 113" d="M 5902.4 -470.1 h -0.1 C 5898 -466.5 5894.3 -462.2 5891.5 -457.3 C 5894.3 -452.5 5898 -448.1 5902.3 -444.5 h 0.1 C 5906.7 -448.1 5910.4 -452.5 5913.2 -457.3 C 5910.4 -462.2 5906.7 -466.5 5902.4 -470.1 Z" transform="translate(-5023.8,-866.4) rotate(30)" fill="#ffffff" stroke="#0763eb" stroke-linecap="round" stroke-linejoin="round" stroke-width="2.2"/>
    <g id="Group_247" data-name="Group 247" transform="translate(272.2,1645.9)">
      <g id="Group_239" data-name="Group 239" transform="translate(12)">
        <line id="Line_120" data-name="Line 120" y2="7.098" fill="none" stroke="#0763eb" stroke-linecap="round" stroke-linejoin="round" stroke-width="2.2"/>
        <line id="Line_121" data-name="Line 121" y2="7.098" transform="translate(0 16.974)" fill="none" stroke="#0763eb" stroke-linecap="round" stroke-linejoin="round" stroke-width="2.2"/>
      </g>
      <g id="Group_240" data-name="Group 240" transform="translate(0,12)">
        <line id="Line_122" data-name="Line 122" x2="7.098" fill="none" stroke="#0763eb" stroke-linecap="round" stroke-linejoin="round" stroke-width="2.2"/>
        <line id="Line_123" data-name="Line 123" x2="7.098" transform="translate(16.974)" fill="none" stroke="#0763eb" stroke-linecap="round" stroke-linejoin="round" stroke-width="2.2"/>
      </g>
      <g id="Group_241" data-name="Group 241" transform="translate(3.5,3.5)">
        <line id="Line_124" data-name="Line 124" y1="5.019" x2="5.019" transform="translate(0 12.002)" fill="none" stroke="#0763eb" stroke-linecap="round" stroke-linejoin="round" stroke-width="2.2"/>
        <line id="Line_125" data-name="Line 125" y1="5.019" x2="5.019" transform="translate(12.002)" fill="none" stroke="#0763eb" stroke-linecap="round" stroke-linejoin="round" stroke-width="2.2"/>
      </g>
      <g id="Group_242" data-name="Group 242" transform="translate(3.5,3.5)">
        <line id="Line_126" data-name="Line 126" x1="5.019" y1="5.019" transform="translate(12.002 12.002)" fill="none" stroke="#0763eb" stroke-linecap="round" stroke-linejoin="round" stroke-width="2.2"/>
        <line id="Line_127" data-name="Line 127" x1="5.019" y1="5.019" fill="none" stroke="#0763eb" stroke-linecap="round" stroke-linejoin="round" stroke-width="2.2"/>
      </g>
    </g>
    <g id="Group_248" data-name="Group 248" transform="translate(341.9,1688.4)">
      <g id="Group_244" data-name="Group 244" transform="translate(7)">
        <line id="Line_128" data-name="Line 128" y2="4.133" fill="none" stroke="#0763eb" stroke-linecap="round" stroke-linejoin="round" stroke-width="2.2"/>
        <line id="Line_129" data-name="Line 129" y2="4.133" transform="translate(0 9.883)" fill="none" stroke="#0763eb" stroke-linecap="round" stroke-linejoin="round" stroke-width="2.2"/>
      </g>
      <g id="Group_245" data-name="Group 245" transform="translate(0,7)">
        <line id="Line_130" data-name="Line 130" x2="4.133" fill="none" stroke="#0763eb" stroke-linecap="round" stroke-linejoin="round" stroke-width="2.2"/>
        <line id="Line_131" data-name="Line 131" x2="4.133" transform="translate(9.883)" fill="none" stroke="#0763eb" stroke-linecap="round" stroke-linejoin="round" stroke-width="2.2"/>
      </g>
    </g>
    <circle id="Ellipse_86" data-name="Ellipse 86" cx="3.4" cy="3.4" r="3.4" transform="translate(318.2,1654.5)" fill="none" stroke="#0763eb" stroke-linecap="round" stroke-linejoin="round" stroke-width="1.878"/>
    <circle id="Ellipse_87" data-name="Ellipse 87" cx="3.9" cy="3.9" r="3.9" transform="translate(345.1,1664.4)" fill="#0763eb"/>
  </g>
</svg>
